<?xml version="1.0" encoding="UTF-8"?>
<svg xmlns="http://www.w3.org/2000/svg" viewBox="0 0 1000 1000" width="1000" height="1000">
  <!-- Music notes and elements -->
  <g fill="#000000" opacity="0.05">
    <!-- Music note 1 -->
    <path d="M200,200 Q220,150 240,200 L240,350 C240,377.6 217.6,400 190,400 C162.4,400 140,377.6 140,350 C140,322.4 162.4,300 190,300 C197.5,300 204.6,301.5 211,304.2 L211,200 L200,200 Z"/>
    
    <!-- Music note 2 -->
    <path d="M400,150 Q420,100 440,150 L440,300 C440,327.6 417.6,350 390,350 C362.4,350 340,327.6 340,300 C340,272.4 362.4,250 390,250 C397.5,250 404.6,251.5 411,254.2 L411,150 L400,150 Z"/>
    
    <!-- Music note 3 -->
    <path d="M600,250 Q620,200 640,250 L640,400 C640,427.6 617.6,450 590,450 C562.4,450 540,427.6 540,400 C540,372.4 562.4,350 590,350 C597.5,350 604.6,351.5 611,354.2 L611,250 L600,250 Z"/>
    
    <!-- Music note 4 -->
    <path d="M800,180 Q820,130 840,180 L840,330 C840,357.6 817.6,380 790,380 C762.4,380 740,357.6 740,330 C740,302.4 762.4,280 790,280 C797.5,280 804.6,281.5 811,284.2 L811,180 L800,180 Z"/>
    
    <!-- Treble Clef -->
    <path d="M330,600 C330,560 310,530 280,530 C250,530 230,560 230,590 C230,620 245,640 270,640 C290,640 310,625 310,600 C310,580 295,560 270,560 C245,560 230,580 230,600 M270,640 C315,640 350,605 350,550 C350,470 290,450 270,450 C240,450 230,470 230,485 C230,500 240,520 260,520 C280,520 290,505 290,485 C290,470 280,455 260,455 M270,450 L270,700 C270,750 240,770 210,770 C180,770 150,750 150,720 C150,690 170,670 200,670 C230,670 260,690 270,720"/>
    
    <!-- Bass Clef -->
    <path d="M680,600 C640,600 610,570 610,530 C610,490 640,460 680,460 C720,460 750,490 750,530 C750,570 720,600 680,600 M730,500 A10,10 0 1 1 730,520 A10,10 0 1 1 730,500 M730,450 A10,10 0 1 1 730,470 A10,10 0 1 1 730,450"/>
    
    <!-- Music Bars -->
    <rect x="100" y="800" width="800" height="2"/>
    <rect x="100" y="820" width="800" height="2"/>
    <rect x="100" y="840" width="800" height="2"/>
    <rect x="100" y="860" width="800" height="2"/>
    <rect x="100" y="880" width="800" height="2"/>
    
    <!-- Bar lines -->
    <rect x="100" y="800" width="2" height="80"/>
    <rect x="300" y="800" width="2" height="80"/>
    <rect x="500" y="800" width="2" height="80"/>
    <rect x="700" y="800" width="2" height="80"/>
    <rect x="898" y="800" width="2" height="80"/>
    
    <!-- Heart notes -->
    <path d="M200,830 L220,850 L240,830 C250,820 250,805 240,795 C230,785 215,785 205,795 C195,785 180,785 170,795 C160,805 160,820 170,830 L190,850 Z"/>
    <path d="M400,850 L420,870 L440,850 C450,840 450,825 440,815 C430,805 415,805 405,815 C395,805 380,805 370,815 C360,825 360,840 370,850 L390,870 Z"/>
    <path d="M600,830 L620,850 L640,830 C650,820 650,805 640,795 C630,785 615,785 605,795 C595,785 580,785 570,795 C560,805 560,820 570,830 L590,850 Z"/>
    <path d="M800,850 L820,870 L840,850 C850,840 850,825 840,815 C830,805 815,805 805,815 C795,805 780,805 770,815 C760,825 760,840 770,850 L790,870 Z"/>
  </g>
</svg>